# xmcd
#
# Track frame offsets:
#	150
#	15296
#	28719
#	42934
#	58941
#	70429
#	84437
#	96939
#	113840
#	129412
#	141116
#	159100
#	173506
#	185747
#	202079
#	215818
#
# Disc length: 3057 seconds
#
# Revision: 4
# Processed by: cddbd v1.5.2PL0 Copyright (c) Steve Scherf et al.
# Submitted via: EZCDAudioConverter 1.0.4.1
#
DISCID=e00bef10
DTITLE=Country Line Dancing Band - Country Line Dancing [CD3]
DYEAR=1998
DGENRE=Country
TTITLE0=Achy Breaky Heart
TTITLE1=Honky Tonkins What I Do Best
TTITLE2=I Want To Live Again
TTITLE3=All That Heaven Will Allow
TTITLE4=Western Women
TTITLE5=I'll Give You Something To Drink About
TTITLE6=Rompin' Stompin'
TTITLE7=Holdin' Heaven
TTITLE8=What They're Talking About
TTITLE9=Running Bear
TTITLE10=Shut Up And Drive
TTITLE11=Cotton Eye Joe
TTITLE12=It's A Little Too Late
TTITLE13=Rose Of Memphis
TTITLE14=A Little More Love
TTITLE15=Last Thing On My Mind
EXTD=
EXTT0=
EXTT1=
EXTT2=
EXTT3=
EXTT4=
EXTT5=
EXTT6=
EXTT7=
EXTT8=
EXTT9=
EXTT10=
EXTT11=
EXTT12=
EXTT13=
EXTT14=
EXTT15=
PLAYORDER=
